<svg width="20" height="20" viewBox="0 0 20 20" fill="none" xmlns="http://www.w3.org/2000/svg">
<path d="M10.0002 0C10.3036 3.65386e-05 10.5959 0.112414 10.8206 0.314453C11.0451 0.516434 11.1865 0.793616 11.2161 1.09277C11.2456 1.3921 11.1617 1.69223 10.9807 1.93359C10.7997 2.17496 10.5342 2.3412 10.2366 2.39941V3.52148C12.2395 3.58399 14.1592 4.4363 15.6653 5.94336C17.3937 7.66451 18.363 9.99524 18.3596 12.4238L18.3538 14.1523C18.3413 17.9779 15.584 20 10.3801 20H9.62622C4.42243 20 1.6652 17.9779 1.65259 14.1523L1.64673 12.4229C1.64351 9.99465 2.61196 7.6642 4.34009 5.94336C5.84483 4.43792 7.76316 3.58476 9.76392 3.52148V2.39941C9.46629 2.34121 9.2008 2.17491 9.01978 1.93359C8.83875 1.69222 8.75492 1.39212 8.78442 1.09277C8.81399 0.793794 8.95461 0.516399 9.17896 0.314453C9.40368 0.112381 9.69684 0 10.0002 0ZM9.81567 15.9561C9.63227 15.9922 9.46354 16.0808 9.3313 16.2119C9.19904 16.343 9.109 16.5105 9.07251 16.6924C9.03611 16.874 9.05482 17.0623 9.12622 17.2334C9.1978 17.4047 9.31934 17.5513 9.47485 17.6543C9.63037 17.7573 9.81321 17.8125 10.0002 17.8125C10.251 17.8125 10.4919 17.7139 10.6692 17.5381C10.8465 17.3623 10.9456 17.1236 10.9456 16.875C10.9455 16.6897 10.8902 16.5086 10.7864 16.3545C10.6825 16.2003 10.5344 16.0797 10.3616 16.0088C10.1889 15.938 9.99897 15.9199 9.81567 15.9561ZM10.0002 5.78125C6.14201 5.78125 3.39649 9.10304 3.80298 12.8711C3.87489 13.5606 4.20146 14.1999 4.71997 14.665C5.23849 15.13 5.91237 15.3884 6.61157 15.3906C8.30574 15.3859 8.30595 14.4531 10.0002 14.4531C11.6944 14.4532 11.6946 15.3859 13.3889 15.3906C14.0882 15.3884 14.762 15.1301 15.2805 14.665C15.799 14.1999 16.1256 13.5607 16.1975 12.8711C16.604 9.10309 13.8584 5.78134 10.0002 5.78125ZM1.66724 8.56543C1.71372 8.57291 1.75682 8.59414 1.79126 8.62598C1.82576 8.65793 1.84992 8.69952 1.8606 8.74512C1.87123 8.79058 1.86846 8.83819 1.85181 8.88184C1.39582 10.0072 1.16562 11.2101 1.17407 12.4229L1.17896 14.1543C1.17975 14.4041 1.19347 14.6551 1.21899 14.9004C1.22301 14.9465 1.21297 14.9926 1.19067 15.0332C1.16829 15.0739 1.13436 15.1072 1.09302 15.1289C1.05167 15.1506 1.00479 15.1599 0.958252 15.1553C0.911787 15.1507 0.867483 15.1328 0.831299 15.1035C0.75616 15.0416 0.684886 14.9752 0.618408 14.9043C-0.055234 14.1771 -0.024199 13.2542 0.0197754 11.9775C0.0627959 10.7094 0.0940511 9.7937 0.821533 9.0752C1.02776 8.87299 1.26715 8.70655 1.52954 8.58398C1.57244 8.56443 1.62062 8.55796 1.66724 8.56543ZM18.4709 8.58398C18.7333 8.70655 18.9728 8.87303 19.179 9.0752C19.9062 9.79371 19.9377 10.7094 19.9807 11.9775C20.0241 13.2542 20.0547 14.1771 19.3811 14.9043C19.3147 14.9751 19.2433 15.0417 19.1682 15.1035C19.132 15.1327 19.0877 15.1507 19.0413 15.1553C18.9949 15.1598 18.9477 15.1505 18.9065 15.1289C18.8654 15.1072 18.8311 15.0738 18.8088 15.0332C18.7866 14.9926 18.7775 14.9464 18.7815 14.9004C18.807 14.6552 18.8205 14.4042 18.8206 14.1543L18.8264 12.4229C18.8349 11.2101 18.6046 10.0072 18.1487 8.88184C18.132 8.83818 18.1293 8.79061 18.1399 8.74512C18.1506 8.69952 18.1747 8.65793 18.2092 8.62598C18.2437 8.59411 18.2867 8.57289 18.3333 8.56543C18.3799 8.55796 18.428 8.56443 18.4709 8.58398Z" fill="#3F80F7"/>
<path d="M12 8H12.8193V13H12V8Z" fill="#333333"/>
<path d="M7.91176 8H8.84314L10.7549 13H9.87955L9.42437 11.7465H7.33053L6.87535 13H6L7.91176 8ZM7.57563 11.0742H9.17927L8.39496 8.88235H8.36695L7.57563 11.0742Z" fill="#333333"/>
</svg>
