<?xml version="1.0" encoding="UTF-8"?>
<svg width="16px" height="16px" viewBox="0 0 16 16" version="1.1" xmlns="http://www.w3.org/2000/svg" xmlns:xlink="http://www.w3.org/1999/xlink">
    <title>通讯录</title>
    <g id="能量带宽" stroke="none" stroke-width="1" fill="none" fill-rule="evenodd">
        <g id="资源管理2.0-委托历史" transform="translate(-323.000000, -698.000000)" fill="#999999" fill-rule="nonzero">
            <g id="编组-3备份-2" transform="translate(16.000000, 519.000000)">
                <g id="收款地址备份" transform="translate(10.000000, 169.000000)">
                    <g id="通讯录" transform="translate(297.000000, 10.000000)">
                        <path d="M10.7733333,8.42666667 C11.4133333,7.89333334 11.7333333,7.14666667 11.7333333,6.4 C11.7333333,4.90666667 10.56,3.73333333 9.06666667,3.73333333 C7.57333334,3.73333333 6.4,4.90666667 6.4,6.4 C6.4,7.14666667 6.72,7.89333333 7.36,8.42666667 C5.86666667,9.06666667 4.8,10.56 4.8,12.2666667 C4.8,12.5866667 5.01333333,12.8 5.33333333,12.8 C5.65333333,12.8 5.86666666,12.5866667 5.86666667,12.2666667 C5.86666667,10.4533333 7.25333334,9.06666667 9.06666667,9.06666667 C10.88,9.06666667 12.2666667,10.4533333 12.2666667,12.2666667 C12.2666667,12.5866667 12.48,12.8 12.8,12.8 C13.12,12.8 13.3333333,12.5866667 13.3333333,12.2666667 C13.3333333,10.56 12.2666667,9.06666667 10.7733333,8.42666667 L10.7733333,8.42666667 Z M9.06666667,8 C8.21333333,8 7.46666667,7.25333333 7.46666667,6.4 C7.46666667,5.54666667 8.21333334,4.8 9.06666667,4.8 C9.92,4.8 10.6666667,5.54666667 10.6666667,6.4 C10.6666667,7.25333333 9.92,8 9.06666667,8 Z" id="形状"></path>
                        <path d="M13.3333333,0 L3.73333333,0 C2.24,0 1.06666667,1.17333333 1.06666667,2.66666667 L1.06666667,4.26666667 L0.533333328,4.26666667 C0.213333328,4.26666667 0,4.48 0,4.8 C0,5.12 0.213333328,5.33333333 0.533333328,5.33333333 L1.06666667,5.33333333 L1.06666667,7.46666667 L0.533333328,7.46666667 C0.213333328,7.46666667 0,7.68 0,8 C0,8.32 0.213333328,8.53333333 0.533333328,8.53333333 L1.06666667,8.53333333 L1.06666667,10.6666667 L0.533333328,10.6666667 C0.213333328,10.6666667 0,10.88 0,11.2 C0,11.52 0.213333328,11.7333333 0.533333328,11.7333333 L1.06666667,11.7333333 L1.06666667,13.3333333 C1.06666667,14.8266667 2.24,16 3.73333333,16 L13.3333333,16 C14.8266667,16 16,14.8266667 16,13.3333333 L16,2.66666667 C16,1.17333333 14.8266667,0 13.3333333,0 Z M14.9333333,13.3333333 C14.9333333,14.1866667 14.1866667,14.9333333 13.3333333,14.9333333 L3.73333333,14.9333333 C2.88,14.9333333 2.13333333,14.1866667 2.13333333,13.3333333 L2.13333333,11.7333333 L2.66666667,11.7333333 C2.98666667,11.7333333 3.2,11.52 3.2,11.2 C3.2,10.88 2.98666667,10.6666667 2.66666667,10.6666667 L2.13333333,10.6666667 L2.13333333,8.53333333 L2.66666667,8.53333333 C2.98666667,8.53333333 3.2,8.32 3.2,8 C3.2,7.68 2.98666667,7.46666667 2.66666667,7.46666667 L2.13333333,7.46666667 L2.13333333,5.33333333 L2.66666667,5.33333333 C2.98666667,5.33333333 3.2,5.12 3.2,4.8 C3.2,4.48 2.98666667,4.26666667 2.66666667,4.26666667 L2.13333333,4.26666667 L2.13333333,2.66666667 C2.13333333,1.81333333 2.88,1.06666667 3.73333333,1.06666667 L13.3333333,1.06666667 C14.1866667,1.06666667 14.9333333,1.81333334 14.9333333,2.66666667 L14.9333333,13.3333333 Z" id="形状"></path>
                    </g>
                </g>
            </g>
        </g>
    </g>
</svg>