<?xml version="1.0" encoding="UTF-8"?>
<svg width="26px" height="24px" viewBox="0 0 26 24" version="1.1" xmlns="http://www.w3.org/2000/svg" xmlns:xlink="http://www.w3.org/1999/xlink">
    <title>矩形 2</title>
    <g id="交易GAS费" stroke="none" stroke-width="1" fill="none" fill-rule="evenodd">
        <g id="GAS加油站-兑换" transform="translate(-333.000000, -417.000000)" fill="#3F80F7">
            <path d="M359,417 L359,437 C359,439.209139 357.209139,441 355,441 L333,441 L359,417 Z M356.321043,429.07092 C356.011404,428.76128 355.504715,428.76128 355.195075,429.07092 L355.195075,429.07092 L348.623344,435.642651 L345.804868,432.824175 C345.495228,432.514535 344.988539,432.514535 344.6789,432.824175 C344.36926,433.133793 344.36926,433.640482 344.6789,433.950122 L344.6789,433.950122 L348.056782,437.328026 C348.212536,437.483779 348.418078,437.560489 348.623365,437.559563 C348.828673,437.56051 349.034173,437.483779 349.189927,437.328026 L349.189927,437.328026 L356.321043,430.196909 C356.630704,429.887269 356.630683,429.380559 356.321043,429.07092 Z" id="矩形-2"></path>
        </g>
    </g>
</svg>